<?xml version="1.0" standalone="no"?>
<!DOCTYPE svg PUBLIC "-//W3C//DTD SVG 20010904//EN"
 "http://www.w3.org/TR/2001/REC-SVG-20010904/DTD/svg10.dtd">
<svg version="1.0" xmlns="http://www.w3.org/2000/svg"
 width="1855.000000pt" height="754.000000pt" viewBox="0 0 1855.000000 754.000000"
 preserveAspectRatio="xMidYMid meet">

<g transform="translate(0.000000,754.000000) scale(0.100000,-0.100000)"
fill="#000000" stroke="none">
<path d="M14775 6239 c-299 -28 -566 -154 -702 -331 -165 -213 -233 -471 -233
-885 l0 -143 -210 0 -210 0 2 -412 3 -413 208 -3 207 -2 0 -1345 0 -1345 505
0 505 0 0 1345 0 1345 400 0 400 0 0 410 0 410 -406 0 -406 0 3 143 c4 138 5
145 37 210 38 76 83 118 162 149 45 18 76 22 175 22 135 0 229 -14 357 -54
l88 -28 0 418 0 418 -77 21 c-113 30 -206 48 -308 60 -137 15 -388 21 -500 10z"/>
<path d="M1493 6225 c-150 -41 -286 -161 -342 -304 -73 -184 -31 -389 109
-536 267 -277 722 -167 846 205 26 78 24 225 -5 304 -60 167 -189 287 -356
331 -73 18 -182 18 -252 0z"/>
<path d="M16797 6225 c-88 -24 -160 -67 -228 -134 -200 -201 -200 -510 1 -711
200 -200 509 -200 711 0 101 100 148 212 149 355 0 141 -46 251 -150 356 -100
101 -218 149 -360 148 -41 0 -97 -7 -123 -14z"/>
<path d="M9710 5330 c0 -478 -2 -870 -4 -870 -2 0 -46 43 -97 96 -212 216
-442 344 -726 401 -137 27 -452 24 -593 -6 -557 -119 -967 -476 -1175 -1022
-137 -357 -171 -848 -89 -1257 52 -262 165 -531 301 -721 214 -298 533 -518
880 -605 161 -40 248 -49 446 -43 244 7 378 40 572 140 148 77 333 234 435
370 19 25 38 47 43 47 4 0 7 -112 7 -250 l0 -250 500 0 500 0 0 2420 0 2420
-500 0 -500 0 0 -870z m-650 -1231 c295 -75 521 -307 614 -629 120 -422 -4
-894 -299 -1133 -353 -285 -859 -236 -1152 113 -70 84 -151 232 -182 334 -66
217 -66 497 -1 711 51 165 170 346 292 442 211 169 472 227 728 162z"/>
<path d="M4935 4969 c-172 -25 -383 -113 -522 -218 -76 -58 -222 -202 -296
-291 l-37 -45 0 248 0 247 -505 0 -505 0 0 -1775 0 -1775 505 0 504 0 3 1082
3 1083 23 80 c66 238 205 383 422 441 87 23 261 23 354 0 206 -50 345 -199
408 -436 l22 -85 3 -1082 4 -1083 504 0 505 0 0 1173 c0 725 -4 1218 -11 1292
-23 272 -95 499 -218 685 -56 86 -187 216 -277 276 -144 96 -326 161 -514 184
-98 12 -289 11 -375 -1z"/>
<path d="M1120 3135 l0 -1775 500 0 500 0 0 1775 0 1775 -500 0 -500 0 0
-1775z"/>
<path d="M11660 3135 l0 -1775 505 0 505 0 0 1775 0 1775 -505 0 -505 0 0
-1775z"/>
<path d="M16420 3135 l0 -1775 505 0 505 0 0 1775 0 1775 -505 0 -505 0 0
-1775z"/>
</g>
</svg>
